<?xml version="1.0" standalone="no"?>
<!DOCTYPE svg PUBLIC "-//W3C//DTD SVG 20010904//EN"
 "http://www.w3.org/TR/2001/REC-SVG-20010904/DTD/svg10.dtd">
<svg version="1.0" xmlns="http://www.w3.org/2000/svg"
 width="256.000000pt" height="256.000000pt" viewBox="0 0 256.000000 256.000000"
 preserveAspectRatio="xMidYMid meet">
<metadata>
Created by potrace 1.14, written by Peter Selinger 2001-2017
</metadata>
<g transform="translate(0.000000,256.000000) scale(0.100000,-0.100000)"
fill="#000000" stroke="none">
<path d="M1085 2545 c-172 -32 -269 -64 -405 -137 -611 -324 -856 -1091 -542
-1701 195 -381 546 -632 967 -692 397 -57 802 80 1083 367 335 341 454 834
311 1284 -131 413 -479 745 -889 849 -180 46 -377 57 -525 30z m-124 -554 l24
-19 3 -607 2 -606 -30 -30 -30 -30 -166 3 c-160 3 -166 4 -185 27 -18 22 -19
48 -19 631 l0 609 26 20 c25 19 40 21 189 21 145 0 165 -2 186 -19z m484 13
c41 -16 45 -49 45 -365 l0 -303 35 34 35 34 0 278 0 279 25 24 c24 24 28 25
184 25 88 0 167 -3 176 -6 40 -16 45 -51 45 -332 l0 -268 34 -33 c18 -18 45
-56 60 -85 68 -134 47 -283 -54 -399 -33 -37 -40 -53 -40 -85 0 -29 -7 -49
-24 -69 -24 -28 -24 -28 -171 -31 -81 -2 -158 -1 -172 2 -43 11 -63 41 -63 94
0 42 -5 53 -35 82 l-35 34 0 -78 c0 -72 -2 -79 -29 -107 -26 -26 -36 -29 -90
-29 l-61 0 0 -55 c0 -42 3 -55 15 -55 22 0 94 -69 101 -96 l6 -24 238 0 c205
0 239 -2 251 -16 9 -11 10 -20 2 -32 -9 -15 -39 -17 -251 -20 l-240 -2 -6 -24
c-9 -35 -79 -94 -121 -102 -71 -13 -149 26 -179 91 l-17 35 -242 2 -242 3 0
30 0 30 242 3 242 2 17 36 c16 34 61 75 97 87 13 5 17 18 17 56 l0 49 -71 4
c-119 6 -109 -52 -109 655 l0 604 25 24 c24 24 28 25 184 25 88 0 167 -3 176
-6z"/>
<path d="M640 1840 c-25 -25 -25 -42 -2 -63 15 -14 41 -17 138 -17 127 0 144
6 144 46 0 42 -34 54 -152 54 -95 0 -110 -2 -128 -20z"/>
<path d="M635 1660 c-15 -17 -16 -24 -7 -45 15 -32 40 -38 167 -33 111 3 125
9 125 54 0 38 -18 44 -145 44 -109 0 -124 -2 -140 -20z"/>
<path d="M1154 1850 c-28 -11 -36 -43 -17 -69 13 -19 24 -21 137 -21 81 0 126
4 134 12 19 19 15 66 -7 78 -23 12 -217 12 -247 0z"/>
<path d="M1640 1840 c-24 -24 -24 -29 -4 -58 14 -21 22 -22 138 -22 129 0 146
5 146 46 0 42 -34 54 -152 54 -95 0 -110 -2 -128 -20z"/>
<path d="M1142 1668 c-7 -7 -12 -25 -12 -40 0 -39 29 -48 151 -48 114 0 139 9
139 48 0 47 -14 52 -145 52 -81 0 -125 -4 -133 -12z"/>
<path d="M1636 1658 c-20 -29 -20 -34 4 -58 18 -18 33 -20 128 -20 118 0 152
12 152 54 0 41 -17 46 -146 46 -116 0 -124 -1 -138 -22z"/>
<path d="M1664 1381 c-270 -123 -191 -530 102 -531 118 0 203 50 253 152 75
149 5 327 -152 385 -51 18 -156 15 -203 -6z m66 -256 c0 -188 -1 -195 -20
-195 -19 0 -20 7 -20 155 0 85 -3 155 -7 155 -4 0 -24 -16 -44 -36 -36 -35
-59 -38 -59 -8 0 20 111 123 133 124 16 0 17 -16 17 -195z m128 37 l3 -153 44
36 c42 35 65 39 65 12 0 -23 -116 -129 -136 -125 -18 3 -19 16 -22 183 -1 99
0 185 3 193 3 7 13 12 22 10 16 -3 18 -20 21 -156z"/>
<path d="M1244 520 c-30 -12 -64 -58 -64 -86 0 -12 12 -36 26 -53 21 -26 33
-31 69 -31 35 0 48 5 64 26 55 70 -15 177 -95 144z"/>
</g>
</svg>
